# xmcd
# 
# Track frame offsets:
#     150
#     43017
#     66398
#     88199
#     101903
#     116744
#     139247
# 
# Disc length: 2100
# 
# Revision: 2
# Processed by: cddbd v1.5.2PL0 Copyright (c) Steve Scherf et al.
# Submitted via: fre:ac v1.0.17
# 
DISCID=6a083207
DTITLE=Eric Burdon - Hits CD2
DYEAR=2006
DGENRE=Rock
TTITLE0=We Gotta Get Out Of This Place
TTITLE1=Don't Bring Me Down
TTITLE2=The Road
TTITLE3=Got The Funky Fever
TTITLE4=Be My Baby
TTITLE5=The House of The Rising Sun
TTITLE6=Devil's Daughter
EXTD=
EXTT0=
EXTT1=
EXTT2=
EXTT3=
EXTT4=
EXTT5=
EXTT6=
PLAYORDER=
